<?xml version="1.0" encoding="UTF-8" standalone="no"?>
<svg xmlns="http://www.w3.org/2000/svg" version="1.1" width="40" height="40">
  <circle cx="12" cy="2" r="2" fill="black"/>
  <circle cx="17" cy="2" r="2" fill="black"/>
    <circle cx="22" cy="2" r="2" fill="black"/>
    <circle cx="27" cy="2" r="2" fill="black"/>
  <circle cx="7" cy="7" r="2" fill="black"/>
  <circle cx="32" cy="7" r="2" fill="black"/>
  <circle cx="2" cy="12" r="2" fill="black"/>
  <circle cx="37" cy="12" r="2" fill="black"/>
    <circle cx="2" cy="17" r="2" fill="black"/>
    <circle cx="37" cy="17" r="2" fill="black"/>
    <circle cx="2" cy="22" r="2" fill="black"/>
    <circle cx="37" cy="22" r="2" fill="black"/>
  <circle cx="2" cy="27" r="2" fill="black"/>
  <circle cx="37" cy="27" r="2" fill="black"/>
    <circle cx="7" cy="32" r="2" fill="black"/>
    <circle cx="32" cy="32" r="2" fill="black"/>
    <circle cx="12" cy="37" r="2" fill="black"/>
    <circle cx="17" cy="37" r="2" fill="black"/>
    <circle cx="22" cy="37" r="2" fill="black"/>
    <circle cx="27" cy="37" r="2" fill="black"/>
</svg>